# xmcd CD database file
#
# Track frame offsets:
#	150
#	18920
#	36961
#	57337
#	78680
#	99056
#	121123
#	143830
#	159172
#	181736
#
# Disc length: 2714 seconds
#
# Revision: 0
# Processed by: cddbd v1.5.1PL2 Copyright (c) Steve Scherf et al.
# Submitted via: CDex 1.51
#
DISCID=6f0a980a
DTITLE=Elliot Maysonet and The Salsa All Stars - Mi Puerto Rico
DYEAR=2005
DGENRE=Salsa
TTITLE0=que hablen
TTITLE1=El no te puedes querer
TTITLE2=mi Puerto Rico
TTITLE3=Sin saber
TTITLE4=Dime porque
TTITLE5=Mentiras
TTITLE6=Llorare
TTITLE7=Boriqua New York
TTITLE8=Por mi musica
TTITLE9=Amor de confusion
EXTD=YEAR: 2005
EXTT0=
EXTT1=
EXTT2=
EXTT3=
EXTT4=
EXTT5=
EXTT6=
EXTT7=
EXTT8=
EXTT9=
PLAYORDER=
